<?xml version="1.0" standalone="yes"?>
<svg xmlns="http://www.w3.org/2000/svg" width="250" height="250">
<path style="fill:#010101; stroke:none;" d="M0 0L0 41L1 41C3.54527 22.1907 21.6227 2.70242 41 1C30.2501 -3.51083 11.6957 0 0 0z"/>
<path style="fill:#ffffff; stroke:none;" d="M171 174C194.189 174 219.516 176.897 236.826 157.985C257.478 135.424 250 97.248 250 69C250 57.3611 251.785 44.0779 247.533 33C242.904 20.9398 234.509 11.163 223 5.25926C207.292 -2.79854 188.119 0 171 0L68 0C45.0569 0 23.3561 -0.0484161 8.77392 21C-1.06715 35.2049 0 50.5621 0 67L0 135C0 165.521 -9.33589 212.085 14.2894 235.711C34.8805 256.302 68.5376 250 95 250C106.294 250 118.871 251.538 130 249.535C139.689 247.792 148.957 242.863 155.91 235.91C172.859 218.961 171 196.014 171 174z"/>
<path style="fill:#010101; stroke:none;" d="M209 0L209 1C227.809 3.5453 247.298 21.6227 249 41L250 41L250 0L209 0M14 78L78 78L78 13C52.7269 13 20.3178 10.5355 14.4645 43C12.4578 54.1298 14 66.703 14 78M93 13L93 78L157 78L157 13L93 13M172 14L172 78L236 78C236 52.9559 238.755 21.2927 207 14.5177C196.084 12.1888 183.146 14 172 14M13 94L13 160L78 160L78 94L13 94M93 94L93 160L157 160L157 94L93 94M172 94L172 160C183.457 160 196.781 161.876 208 159.482C239.927 152.671 236 118.685 236 94L172 94M249 133C243.112 172.869 202.072 174 171 174C171 204.278 168.167 243.363 130 249L130 250L250 250L250 169L249 133M13 175C13 186.067 11.6015 198.182 14.2392 209C21.6777 239.507 53.7646 236 78 236L78 175L13 175M93 176L93 237C103.918 237 116.298 238.614 127 236.331C157.282 229.87 157 200.643 157 176L93 176M0 209L0 250L41 250L41 249C17.8516 245.868 8.96233 227.493 0 209z"/>
</svg>
